<?xml version="1.0" encoding="utf-8"?>
<!-- Generator: Adobe Illustrator 19.0.0, SVG Export Plug-In . SVG Version: 6.00 Build 0)  -->
<svg version="1.1" id="Layer_1" xmlns="http://www.w3.org/2000/svg" xmlns:xlink="http://www.w3.org/1999/xlink" x="0px" y="0px"
	 viewBox="0 0 54 54" style="enable-background:new 0 0 54 54;" xml:space="preserve">
<style type="text/css">
	.st0{fill:#4660AC;}
	.st1{fill:url(#XMLID_641_);}
	.st2{opacity:0.95;fill:url(#XMLID_642_);}
	.st3{fill:url(#XMLID_643_);stroke:url(#XMLID_644_);stroke-miterlimit:10;}
	.st4{opacity:0.95;fill:url(#XMLID_645_);}
	.st5{fill:url(#XMLID_646_);}
	.st6{opacity:0.95;fill:url(#XMLID_647_);}
</style>
<g id="XMLID_108_">
	<path id="XMLID_109_" class="st0" d="M-2487.3,297.7h53.4l-1.7,5.6L-2487.3,297.7z M-2431.7,291.2l-51.6-5.4h53.3L-2431.7,291.2z
		 M-2427.6,266.6v1l-52.4-5.6h52.7C-2427.5,264-2427.6,265.5-2427.6,266.6z M-2424.5,250.1c-0.5,1.3-1,3.2-1.6,5.6l-51.7-5.6
		H-2424.5z M-2426.5,273.8c0.7,2.1,1.9,4,3.6,5.6l-52.3-5.6H-2426.5z M-2416,238.2c-2.2,1.6-3.9,3.4-5.1,5.2l-48.2-5.2H-2416z
		 M-2377.2,257.6c-5.6-1.3-10.4-2-14.3-2c-4,0-6.9,0.1-8.8,0.4l-0.6,3.6l6.2,0.7c13.3,1.7,19.9,7.2,19.9,16.4c0,1.1-0.2,3.1-0.7,6
		c-0.5,2.9-1.3,5.7-2.5,8.5c-1.2,2.7-2.6,4.9-4.4,6.6c-1.8,1.7-3.5,3-5.2,4.1c-1.7,1-3.9,1.7-6.5,2.2c-4.1,0.7-9.6,1-16.5,1
		c-6.9,0-13.8-0.9-20.8-2.8l6.1-18.3c6.4,1.8,12.1,2.7,16.9,2.7c4.8,0,8.2-0.1,10.2-0.4l0.6-4l-7.8-0.9c-6.7-0.7-11.4-2.3-14.2-4.7
		c-2.8-2.4-4.2-5.8-4.2-10.3c0-1.6,0.2-3.7,0.6-6.2c1.6-8.8,4.6-14.9,8.9-18.3c4.3-3.4,10.8-5.1,19.6-5.1s16.6,0.9,23.5,2.6
		L-2377.2,257.6z"/>
	<path id="XMLID_117_" class="st0" d="M-2323.3,303.3l-52.4-5.6h53.4L-2323.3,303.3z M-2321.2,291.3l-52.4-5.6h53.4L-2321.2,291.3z
		 M-2319.1,279.4l-52.4-5.6h53.4L-2319.1,279.4z M-2317,267.5l-52.4-5.6h53.4L-2317,267.5z M-2314.9,255.7l-52.4-5.6h53.4
		L-2314.9,255.7z M-2312.8,243.8l-52.4-5.6h53.3L-2312.8,243.8z M-2319.2,303.6l11.4-65.4h21.8l-11.5,65.4H-2319.2z"/>
	<path id="XMLID_125_" class="st0" d="M-2237.3,273.8c-0.3,2.6-0.5,4.3-0.6,5.2l-48.7-5.2H-2237.3z M-2238.1,285.7
		c0,1.3,0.2,3.1,0.5,5.2l-48.6-5.2H-2238.1z M-2235,262l-1.1,5.2l-48.3-5.2H-2235z M-2230.7,250.1c-1,2.1-1.7,3.8-2.1,4.9l-46.7-4.9
		H-2230.7z M-2235.5,297.7c1,2,2.1,3.5,3.2,4.6l-43.1-4.6H-2235.5z M-2219.9,238.2c-2,1.2-3.7,2.5-5.1,4.1l-38-4.1H-2219.9z
		 M-2184.4,300.2c-8.4,3.3-17,4.9-25.7,4.9c-8.7,0-15-1.7-18.7-5.1s-5.6-8.7-5.6-15.9c0-3.5,0.6-8.6,1.7-15.2
		c1.2-6.6,2.9-12.2,5.3-16.9c5.2-10,15.7-15,31.5-15c9.2,0,15.7,0.9,19.3,2.7l-6.3,17.2c-5.2-1.2-9.9-1.7-14-1.7s-7.1,0.3-8.8,0.9
		c-1.7,0.6-2.8,1.7-3.1,3.3l-5.2,28.4h5.7c2.1,0,3.6-0.2,4.8-0.7c1.1-0.5,1.8-1.5,2-3l0.9-4.8h-5.1l2.5-14.1h25L-2184.4,300.2z"/>
	<path id="XMLID_133_" class="st0" d="M-2127.3,303.3l-52.4-5.6h53.7L-2127.3,303.3z M-2124.6,291.3l-52.3-5.6h53.7L-2124.6,291.3z
		 M-2121.8,279.4l-52.3-5.6h53.5L-2121.8,279.4z M-2119.3,267.5l-51.9-5.6h53.3L-2119.3,267.5z M-2116.4,255.7l-51.9-5.6h53.2
		L-2116.4,255.7z M-2113.7,243.8l-51.8-5.6h53.2L-2113.7,243.8z M-2077.4,303.6h-16.3l-1.9-26.6h-0.6l-5.9,26.6h-21.1l15-65.4h26.8
		l1.9,30.7h0.5l12.5-30.7h26.8l-7.9,65.4h-21.3l3.3-26.6h-0.6L-2077.4,303.6z"/>
	<path id="XMLID_141_" class="st0" d="M-1992.6,303.1l-50.7-5.4h53L-1992.6,303.1z M-1987.5,291.2l-50.7-5.4h53L-1987.5,291.2z
		 M-1982.4,279.3l-50.7-5.4h52.9L-1982.4,279.3z M-1977.5,267.4l-50.6-5.4h52.9L-1977.5,267.4z M-1972.4,255.5l-50.6-5.4h52.8
		L-1972.4,255.5z M-1967.5,243.6l-50.4-5.3h52.7L-1967.5,243.6z M-1947.3,303.6l-0.5-10h-15.6l-3.8,10h-21.4l27.4-65.4h30.7
		l4.8,65.4H-1947.3z M-1947.8,275.9v-18.8h-1.7l-7.3,18.8H-1947.8z"/>
</g>
<g id="XMLID_188_">
	<linearGradient id="XMLID_641_" gradientUnits="userSpaceOnUse" x1="-2176.5564" y1="201.3438" x2="-2236.022" y2="-135.9033">
		<stop  offset="2.891278e-002" style="stop-color:#455FAC"/>
		<stop  offset="0.1412" style="stop-color:#4561AD"/>
		<stop  offset="1" style="stop-color:#4B9ED7"/>
	</linearGradient>
	<circle id="XMLID_33_" class="st1" cx="-2206.3" cy="32.7" r="171.2"/>
	<linearGradient id="XMLID_642_" gradientUnits="userSpaceOnUse" x1="-2377.4854" y1="-25.8202" x2="-1953.5448" y2="-25.8202">
		<stop  offset="4.761925e-002" style="stop-color:#4563AE"/>
		<stop  offset="0.233" style="stop-color:#4986C6"/>
		<stop  offset="0.7653" style="stop-color:#4B9ED7"/>
	</linearGradient>
	<path id="XMLID_153_" class="st2" d="M-1953.5-138.5v3.1c-19.2,45.9-50.6,85.5-90.1,114.6c-45.5,33.7-101.7,53.5-162.6,53.5v0.7
		c-60.8,0-117,19.8-162.5,53.4c-5.7-17-8.7-35.2-8.7-54.1c0-18.7,3-36.7,8.6-53.5c22.5-68.3,86.8-117.7,162.6-117.7H-1953.5z"/>
</g>
<g id="XMLID_531_">
	<linearGradient id="XMLID_643_" gradientUnits="userSpaceOnUse" x1="-1297.4135" y1="107.3636" x2="-637.7093" y2="107.3636">
		<stop  offset="2.891278e-002" style="stop-color:#455FAC"/>
		<stop  offset="0.1412" style="stop-color:#4561AD"/>
		<stop  offset="1" style="stop-color:#4B9ED7"/>
	</linearGradient>
	<linearGradient id="XMLID_644_" gradientUnits="userSpaceOnUse" x1="-1297.9135" y1="107.3636" x2="-637.2093" y2="107.3636">
		<stop  offset="0" style="stop-color:#FFFFFF"/>
		<stop  offset="1" style="stop-color:#000000"/>
	</linearGradient>
	<circle id="XMLID_533_" class="st3" cx="-967.6" cy="107.4" r="329.9"/>
	<linearGradient id="XMLID_645_" gradientUnits="userSpaceOnUse" x1="-1297.4135" y1="-5.429" x2="-480.5865" y2="-5.429">
		<stop  offset="4.761925e-002" style="stop-color:#4563AE"/>
		<stop  offset="0.233" style="stop-color:#4986C6"/>
		<stop  offset="0.7653" style="stop-color:#4B9ED7"/>
	</linearGradient>
	<path id="XMLID_532_" class="st4" d="M-480.6-222.5v5.9c-37,88.4-97.5,164.7-173.6,220.8c-87.6,64.8-196,103.1-313.4,103.1v1.4
		c-117.2,0-225.4,38.2-313,102.9c-10.9-32.8-16.9-67.8-16.9-104.3c0-36,5.8-70.7,16.5-103.1c43.3-131.7,167.2-226.7,313.4-226.7
		H-480.6z"/>
</g>
<g id="XMLID_162_">
	<path id="XMLID_197_" class="st0" d="M-1711.5,115.4h16.6l-0.5,1.7L-1711.5,115.4z M-1694.2,113.3l-16.1-1.7h16.6L-1694.2,113.3z
		 M-1692.9,105.7v0.3l-16.3-1.7h16.4C-1692.9,104.8-1692.9,105.3-1692.9,105.7z M-1692,100.5c-0.2,0.4-0.3,1-0.5,1.7l-16.1-1.7
		H-1692z M-1692.6,107.9c0.2,0.7,0.6,1.2,1.1,1.7l-16.3-1.7H-1692.6z M-1689.3,96.8c-0.7,0.5-1.2,1.1-1.6,1.6l-15-1.6H-1689.3z
		 M-1677.2,102.9c-1.7-0.4-3.2-0.6-4.5-0.6c-1.2,0-2.1,0-2.7,0.1l-0.2,1.1l1.9,0.2c4.1,0.5,6.2,2.2,6.2,5.1c0,0.3-0.1,1-0.2,1.9
		c-0.2,0.9-0.4,1.8-0.8,2.6c-0.4,0.8-0.8,1.5-1.4,2.1c-0.6,0.5-1.1,0.9-1.6,1.3c-0.5,0.3-1.2,0.5-2,0.7c-1.3,0.2-3,0.3-5.1,0.3
		c-2.1,0-4.3-0.3-6.5-0.9l1.9-5.7c2,0.6,3.8,0.8,5.3,0.8c1.5,0,2.6,0,3.2-0.1l0.2-1.2l-2.4-0.3c-2.1-0.2-3.6-0.7-4.4-1.5
		c-0.9-0.7-1.3-1.8-1.3-3.2c0-0.5,0.1-1.2,0.2-1.9c0.5-2.7,1.4-4.6,2.8-5.7s3.4-1.6,6.1-1.6s5.2,0.3,7.3,0.8L-1677.2,102.9z"/>
	<path id="XMLID_189_" class="st0" d="M-1660.4,117.1l-16.3-1.7h16.6L-1660.4,117.1z M-1659.8,113.4l-16.3-1.7h16.6L-1659.8,113.4z
		 M-1659.1,109.7l-16.3-1.7h16.6L-1659.1,109.7z M-1658.4,106l-16.3-1.7h16.6L-1658.4,106z M-1657.8,102.3l-16.3-1.7h16.6
		L-1657.8,102.3z M-1657.1,98.6l-16.3-1.7h16.6L-1657.1,98.6z M-1659.1,117.2l3.5-20.4h6.8l-3.6,20.4H-1659.1z"/>
	<path id="XMLID_180_" class="st0" d="M-1633.6,107.9c-0.1,0.8-0.2,1.3-0.2,1.6l-15.2-1.6H-1633.6z M-1633.9,111.6
		c0,0.4,0.1,1,0.2,1.6l-15.1-1.6H-1633.9z M-1632.9,104.2l-0.3,1.6l-15.1-1.6H-1632.9z M-1631.6,100.5c-0.3,0.7-0.5,1.2-0.7,1.5
		l-14.6-1.5H-1631.6z M-1633.1,115.4c0.3,0.6,0.6,1.1,1,1.4l-13.4-1.4H-1633.1z M-1628.2,96.8c-0.6,0.4-1.1,0.8-1.6,1.3l-11.8-1.3
		H-1628.2z M-1617.1,116.1c-2.6,1-5.3,1.5-8,1.5c-2.7,0-4.7-0.5-5.8-1.6c-1.2-1.1-1.7-2.7-1.7-5c0-1.1,0.2-2.7,0.5-4.7
		c0.4-2.1,0.9-3.8,1.7-5.3c1.6-3.1,4.9-4.7,9.8-4.7c2.9,0,4.9,0.3,6,0.8l-2,5.4c-1.6-0.4-3.1-0.5-4.4-0.5c-1.3,0-2.2,0.1-2.8,0.3
		c-0.5,0.2-0.9,0.5-1,1l-1.6,8.9h1.8c0.6,0,1.1-0.1,1.5-0.2c0.3-0.1,0.6-0.5,0.6-0.9l0.3-1.5h-1.6l0.8-4.4h7.8L-1617.1,116.1z"/>
	<path id="XMLID_172_" class="st0" d="M-1599.4,117.1l-16.3-1.7h16.7L-1599.4,117.1z M-1598.5,113.4l-16.3-1.7h16.7L-1598.5,113.4z
		 M-1597.6,109.7l-16.3-1.7h16.7L-1597.6,109.7z M-1596.8,106l-16.2-1.7h16.6L-1596.8,106z M-1596,102.3l-16.2-1.7h16.6L-1596,102.3
		z M-1595.1,98.6l-16.1-1.7h16.6L-1595.1,98.6z M-1583.8,117.2h-5.1l-0.6-8.3h-0.2l-1.8,8.3h-6.6l4.7-20.4h8.4l0.6,9.6h0.2l3.9-9.6
		h8.4l-2.5,20.4h-6.6l1-8.3h-0.2L-1583.8,117.2z"/>
	<path id="XMLID_163_" class="st0" d="M-1557.4,117.1l-15.8-1.7h16.5L-1557.4,117.1z M-1555.8,113.3l-15.8-1.7h16.5L-1555.8,113.3z
		 M-1554.2,109.6l-15.8-1.7h16.5L-1554.2,109.6z M-1552.7,105.9l-15.8-1.7h16.5L-1552.7,105.9z M-1551.1,102.2l-15.8-1.7h16.4
		L-1551.1,102.2z M-1549.5,98.5l-15.7-1.7h16.4L-1549.5,98.5z M-1543.3,117.2l-0.2-3.1h-4.9l-1.2,3.1h-6.7l8.6-20.4h9.6l1.5,20.4
		H-1543.3z M-1543.4,108.6v-5.9h-0.5l-2.3,5.9H-1543.4z"/>
</g>
<g id="XMLID_572_">
	<linearGradient id="XMLID_646_" gradientUnits="userSpaceOnUse" x1="25.6244" y1="48.0084" x2="18.2157" y2="5.9917">
		<stop  offset="2.891278e-002" style="stop-color:#455FAC"/>
		<stop  offset="0.1412" style="stop-color:#4561AD"/>
		<stop  offset="1" style="stop-color:#4B9ED7"/>
	</linearGradient>
	<circle id="XMLID_574_" class="st5" cx="21.9" cy="27" r="21.3"/>
	<linearGradient id="XMLID_647_" gradientUnits="userSpaceOnUse" x1="0.5912" y1="19.7066" x2="53.4088" y2="19.7066">
		<stop  offset="4.761925e-002" style="stop-color:#4563AE"/>
		<stop  offset="0.233" style="stop-color:#4986C6"/>
		<stop  offset="0.7653" style="stop-color:#4B9ED7"/>
	</linearGradient>
	<path id="XMLID_573_" class="st6" d="M53.4,5.7v0.4c-2.4,5.7-6.3,10.6-11.2,14.3C36.5,24.5,29.5,27,21.9,27v0.1
		c-7.6,0-14.6,2.5-20.2,6.7C1,31.6,0.6,29.4,0.6,27c0-2.3,0.4-4.6,1.1-6.7C4.5,11.8,12.5,5.7,21.9,5.7H53.4z"/>
</g>
</svg>
