<?xml version="1.0" encoding="utf-8"?>
<!-- Generator: Adobe Illustrator 19.0.0, SVG Export Plug-In . SVG Version: 6.00 Build 0)  -->
<svg version="1.1" id="Layer_1" xmlns="http://www.w3.org/2000/svg" xmlns:xlink="http://www.w3.org/1999/xlink" x="0px" y="0px"
	 viewBox="0 0 1000 772.7" style="enable-background:new 0 0 1000 772.7;" xml:space="preserve">
<style type="text/css">
	.st0{fill:#4660AC;}
	.st1{fill:url(#XMLID_547_);}
	.st2{opacity:0.95;fill:url(#XMLID_548_);}
	.st3{fill:url(#XMLID_549_);}
	.st4{opacity:0.95;fill:url(#XMLID_550_);}
</style>
<g id="XMLID_108_">
	<path id="XMLID_109_" class="st0" d="M-1098.3,576.7h53.4l-1.7,5.6L-1098.3,576.7z M-1042.7,570.2l-51.6-5.4h53.3L-1042.7,570.2z
		 M-1038.6,545.6v1l-52.4-5.6h52.7C-1038.5,543-1038.6,544.5-1038.6,545.6z M-1035.5,529.1c-0.5,1.3-1,3.2-1.6,5.6l-51.7-5.6
		H-1035.5z M-1037.5,552.8c0.7,2.1,1.9,4,3.6,5.6l-52.3-5.6H-1037.5z M-1027,517.2c-2.2,1.6-3.9,3.4-5.1,5.2l-48.2-5.2H-1027z
		 M-988.2,536.6c-5.6-1.3-10.4-2-14.3-2c-4,0-6.9,0.1-8.8,0.4l-0.6,3.6l6.2,0.7c13.3,1.7,19.9,7.2,19.9,16.4c0,1.1-0.2,3.1-0.7,6
		c-0.5,2.9-1.3,5.7-2.5,8.5c-1.2,2.7-2.6,4.9-4.4,6.6c-1.8,1.7-3.5,3-5.2,4.1c-1.7,1-3.9,1.7-6.5,2.2c-4.1,0.7-9.6,1-16.5,1
		c-6.9,0-13.8-0.9-20.8-2.8l6.1-18.3c6.4,1.8,12.1,2.7,16.9,2.7c4.8,0,8.2-0.1,10.2-0.4l0.6-4l-7.8-0.9c-6.7-0.7-11.4-2.3-14.2-4.7
		c-2.8-2.4-4.2-5.8-4.2-10.3c0-1.6,0.2-3.7,0.6-6.2c1.6-8.8,4.6-14.9,8.9-18.3c4.3-3.4,10.8-5.1,19.6-5.1s16.6,0.9,23.5,2.6
		L-988.2,536.6z"/>
	<path id="XMLID_117_" class="st0" d="M-934.3,582.3l-52.4-5.6h53.4L-934.3,582.3z M-932.2,570.3l-52.4-5.6h53.4L-932.2,570.3z
		 M-930.1,558.4l-52.4-5.6h53.4L-930.1,558.4z M-928,546.5l-52.4-5.6h53.4L-928,546.5z M-925.9,534.7l-52.4-5.6h53.4L-925.9,534.7z
		 M-923.8,522.8l-52.4-5.6h53.3L-923.8,522.8z M-930.2,582.6l11.4-65.4h21.8l-11.5,65.4H-930.2z"/>
	<path id="XMLID_125_" class="st0" d="M-848.3,552.8c-0.3,2.6-0.5,4.3-0.6,5.2l-48.7-5.2H-848.3z M-849.1,564.7
		c0,1.3,0.2,3.1,0.5,5.2l-48.6-5.2H-849.1z M-846,541l-1.1,5.2l-48.3-5.2H-846z M-841.7,529.1c-1,2.1-1.7,3.8-2.1,4.9l-46.7-4.9
		H-841.7z M-846.5,576.7c1,2,2.1,3.5,3.2,4.6l-43.1-4.6H-846.5z M-830.9,517.2c-2,1.2-3.7,2.5-5.1,4.1l-38-4.1H-830.9z
		 M-795.4,579.2c-8.4,3.3-17,4.9-25.7,4.9c-8.7,0-15-1.7-18.7-5.1c-3.7-3.4-5.6-8.7-5.6-15.9c0-3.5,0.6-8.6,1.7-15.2
		c1.2-6.6,2.9-12.2,5.3-16.9c5.2-10,15.7-15,31.5-15c9.2,0,15.7,0.9,19.3,2.7l-6.3,17.2c-5.2-1.2-9.9-1.7-14-1.7
		c-4.2,0-7.1,0.3-8.8,0.9c-1.7,0.6-2.8,1.7-3.1,3.3l-5.2,28.4h5.7c2.1,0,3.6-0.2,4.8-0.7c1.1-0.5,1.8-1.5,2-3l0.9-4.8h-5.1l2.5-14.1
		h25L-795.4,579.2z"/>
	<path id="XMLID_133_" class="st0" d="M-738.3,582.3l-52.4-5.6h53.7L-738.3,582.3z M-735.6,570.3l-52.3-5.6h53.7L-735.6,570.3z
		 M-732.8,558.4l-52.3-5.6h53.5L-732.8,558.4z M-730.3,546.5l-51.9-5.6h53.3L-730.3,546.5z M-727.4,534.7l-51.9-5.6h53.2
		L-727.4,534.7z M-724.7,522.8l-51.8-5.6h53.2L-724.7,522.8z M-688.4,582.6h-16.3l-1.9-26.6h-0.6l-5.9,26.6h-21.1l15-65.4h26.8
		l1.9,30.7h0.5l12.5-30.7h26.8l-7.9,65.4H-680l3.3-26.6h-0.6L-688.4,582.6z"/>
	<path id="XMLID_141_" class="st0" d="M-603.6,582.1l-50.7-5.4h53L-603.6,582.1z M-598.5,570.2l-50.7-5.4h53L-598.5,570.2z
		 M-593.4,558.3l-50.7-5.4h52.9L-593.4,558.3z M-588.5,546.4L-639,541h52.9L-588.5,546.4z M-583.4,534.5l-50.6-5.4h52.8
		L-583.4,534.5z M-578.5,522.6l-50.4-5.3h52.7L-578.5,522.6z M-558.3,582.6l-0.5-10h-15.6l-3.8,10h-21.4l27.4-65.4h30.7l4.8,65.4
		H-558.3z M-558.8,554.9v-18.8h-1.7l-7.3,18.8H-558.8z"/>
</g>
<g id="XMLID_188_">
	<linearGradient id="XMLID_547_" gradientUnits="userSpaceOnUse" x1="-787.5563" y1="480.3438" x2="-847.022" y2="143.0967">
		<stop  offset="2.891278e-002" style="stop-color:#455FAC"/>
		<stop  offset="0.1412" style="stop-color:#4561AD"/>
		<stop  offset="1" style="stop-color:#4B9ED7"/>
	</linearGradient>
	<circle id="XMLID_33_" class="st1" cx="-817.3" cy="311.7" r="171.2"/>
	<linearGradient id="XMLID_548_" gradientUnits="userSpaceOnUse" x1="-988.4854" y1="253.1798" x2="-564.5449" y2="253.1798">
		<stop  offset="4.761925e-002" style="stop-color:#4563AE"/>
		<stop  offset="0.233" style="stop-color:#4986C6"/>
		<stop  offset="0.7653" style="stop-color:#4B9ED7"/>
	</linearGradient>
	<path id="XMLID_153_" class="st2" d="M-564.5,140.5v3.1c-19.2,45.9-50.6,85.5-90.1,114.6c-45.5,33.7-101.7,53.5-162.6,53.5v0.7
		c-60.8,0-117,19.8-162.5,53.4c-5.7-17-8.7-35.2-8.7-54.1c0-18.7,3-36.7,8.6-53.5c22.5-68.3,86.8-117.7,162.6-117.7H-564.5z"/>
</g>
<g id="XMLID_531_">
	<linearGradient id="XMLID_549_" gradientUnits="userSpaceOnUse" x1="478.7264" y1="711.2589" x2="364.1508" y2="61.4684">
		<stop  offset="2.891278e-002" style="stop-color:#455FAC"/>
		<stop  offset="0.1412" style="stop-color:#4561AD"/>
		<stop  offset="1" style="stop-color:#4B9ED7"/>
	</linearGradient>
	<circle id="XMLID_533_" class="st3" cx="421.4" cy="386.4" r="329.9"/>
	<linearGradient id="XMLID_550_" gradientUnits="userSpaceOnUse" x1="91.5866" y1="273.571" x2="908.4135" y2="273.571">
		<stop  offset="4.761925e-002" style="stop-color:#4563AE"/>
		<stop  offset="0.233" style="stop-color:#4986C6"/>
		<stop  offset="0.7653" style="stop-color:#4B9ED7"/>
	</linearGradient>
	<path id="XMLID_532_" class="st4" d="M908.4,56.5v5.9c-37,88.4-97.5,164.7-173.6,220.8c-87.6,64.8-196,103.1-313.4,103.1v1.4
		c-117.2,0-225.4,38.2-313,102.9c-10.9-32.8-16.9-67.8-16.9-104.3c0-36,5.8-70.7,16.5-103.1C151.4,151.6,275.3,56.5,421.4,56.5
		H908.4z"/>
</g>
<g id="XMLID_162_">
	<path id="XMLID_197_" class="st0" d="M-322.5,394.4h16.6l-0.5,1.7L-322.5,394.4z M-305.2,392.3l-16.1-1.7h16.6L-305.2,392.3z
		 M-303.9,384.7v0.3l-16.3-1.7h16.4C-303.9,383.8-303.9,384.3-303.9,384.7z M-303,379.5c-0.2,0.4-0.3,1-0.5,1.7l-16.1-1.7H-303z
		 M-303.6,386.9c0.2,0.7,0.6,1.2,1.1,1.7l-16.3-1.7H-303.6z M-300.3,375.8c-0.7,0.5-1.2,1.1-1.6,1.6l-15-1.6H-300.3z M-288.2,381.9
		c-1.7-0.4-3.2-0.6-4.5-0.6c-1.2,0-2.1,0-2.7,0.1l-0.2,1.1l1.9,0.2c4.1,0.5,6.2,2.2,6.2,5.1c0,0.3-0.1,1-0.2,1.9
		c-0.2,0.9-0.4,1.8-0.8,2.6s-0.8,1.5-1.4,2.1c-0.6,0.5-1.1,0.9-1.6,1.3c-0.5,0.3-1.2,0.5-2,0.7c-1.3,0.2-3,0.3-5.1,0.3
		c-2.1,0-4.3-0.3-6.5-0.9l1.9-5.7c2,0.6,3.8,0.8,5.3,0.8c1.5,0,2.6,0,3.2-0.1l0.2-1.2l-2.4-0.3c-2.1-0.2-3.6-0.7-4.4-1.5
		c-0.9-0.7-1.3-1.8-1.3-3.2c0-0.5,0.1-1.2,0.2-1.9c0.5-2.7,1.4-4.6,2.8-5.7c1.3-1.1,3.4-1.6,6.1-1.6c2.7,0,5.2,0.3,7.3,0.8
		L-288.2,381.9z"/>
	<path id="XMLID_189_" class="st0" d="M-271.4,396.1l-16.3-1.7h16.6L-271.4,396.1z M-270.8,392.4l-16.3-1.7h16.6L-270.8,392.4z
		 M-270.1,388.7l-16.3-1.7h16.6L-270.1,388.7z M-269.4,385l-16.3-1.7h16.6L-269.4,385z M-268.8,381.3l-16.3-1.7h16.6L-268.8,381.3z
		 M-268.1,377.6l-16.3-1.7h16.6L-268.1,377.6z M-270.1,396.2l3.5-20.4h6.8l-3.6,20.4H-270.1z"/>
	<path id="XMLID_180_" class="st0" d="M-244.6,386.9c-0.1,0.8-0.2,1.3-0.2,1.6l-15.2-1.6H-244.6z M-244.9,390.6c0,0.4,0.1,1,0.2,1.6
		l-15.1-1.6H-244.9z M-243.9,383.2l-0.3,1.6l-15.1-1.6H-243.9z M-242.6,379.5c-0.3,0.7-0.5,1.2-0.7,1.5l-14.6-1.5H-242.6z
		 M-244.1,394.4c0.3,0.6,0.6,1.1,1,1.4l-13.4-1.4H-244.1z M-239.2,375.8c-0.6,0.4-1.1,0.8-1.6,1.3l-11.8-1.3H-239.2z M-228.1,395.1
		c-2.6,1-5.3,1.5-8,1.5c-2.7,0-4.7-0.5-5.8-1.6s-1.7-2.7-1.7-5c0-1.1,0.2-2.7,0.5-4.7c0.4-2.1,0.9-3.8,1.7-5.3
		c1.6-3.1,4.9-4.7,9.8-4.7c2.9,0,4.9,0.3,6,0.8l-2,5.4c-1.6-0.4-3.1-0.5-4.4-0.5c-1.3,0-2.2,0.1-2.8,0.3c-0.5,0.2-0.9,0.5-1,1
		l-1.6,8.9h1.8c0.6,0,1.1-0.1,1.5-0.2c0.3-0.1,0.6-0.5,0.6-0.9l0.3-1.5h-1.6l0.8-4.4h7.8L-228.1,395.1z"/>
	<path id="XMLID_172_" class="st0" d="M-210.4,396.1l-16.3-1.7h16.7L-210.4,396.1z M-209.5,392.4l-16.3-1.7h16.7L-209.5,392.4z
		 M-208.6,388.7l-16.3-1.7h16.7L-208.6,388.7z M-207.8,385l-16.2-1.7h16.6L-207.8,385z M-207,381.3l-16.2-1.7h16.6L-207,381.3z
		 M-206.1,377.6l-16.1-1.7h16.6L-206.1,377.6z M-194.8,396.2h-5.1l-0.6-8.3h-0.2l-1.8,8.3h-6.6l4.7-20.4h8.4l0.6,9.6h0.2l3.9-9.6
		h8.4l-2.5,20.4h-6.6l1-8.3h-0.2L-194.8,396.2z"/>
	<path id="XMLID_163_" class="st0" d="M-168.4,396.1l-15.8-1.7h16.5L-168.4,396.1z M-166.8,392.3l-15.8-1.7h16.5L-166.8,392.3z
		 M-165.2,388.6l-15.8-1.7h16.5L-165.2,388.6z M-163.7,384.9l-15.8-1.7h16.5L-163.7,384.9z M-162.1,381.2l-15.8-1.7h16.4
		L-162.1,381.2z M-160.5,377.5l-15.7-1.7h16.4L-160.5,377.5z M-154.3,396.2l-0.2-3.1h-4.9l-1.2,3.1h-6.7l8.6-20.4h9.6l1.5,20.4
		H-154.3z M-154.4,387.6v-5.9h-0.5l-2.3,5.9H-154.4z"/>
</g>
</svg>
