<?xml version="1.0" encoding="utf-8"?>
<!-- Generator: Adobe Illustrator 19.0.0, SVG Export Plug-In . SVG Version: 6.00 Build 0)  -->
<svg version="1.1" id="Layer_1" xmlns="http://www.w3.org/2000/svg" xmlns:xlink="http://www.w3.org/1999/xlink" x="0px" y="0px"
	 viewBox="0 0 179 44" style="enable-background:new 0 0 179 44;" xml:space="preserve">
<style type="text/css">
	.st0{fill:#4660AC;}
	.st1{fill:url(#XMLID_206_);}
	.st2{opacity:0.95;fill:url(#XMLID_207_);}
</style>
<g id="XMLID_108_">
	<path id="XMLID_109_" class="st0" d="M-1003.3,212.3h53.4l-1.7,5.6L-1003.3,212.3z M-947.7,205.8l-51.6-5.4h53.3L-947.7,205.8z
		 M-943.6,181.2v1l-52.4-5.6h52.7C-943.5,178.6-943.6,180.1-943.6,181.2z M-940.5,164.7c-0.5,1.3-1,3.2-1.6,5.6l-51.7-5.6H-940.5z
		 M-942.5,188.5c0.7,2.1,1.9,4,3.6,5.6l-52.3-5.6H-942.5z M-932,152.9c-2.2,1.6-3.9,3.4-5.1,5.2l-48.2-5.2H-932z M-893.2,172.3
		c-5.6-1.3-10.4-2-14.3-2c-4,0-6.9,0.1-8.8,0.4l-0.6,3.6l6.2,0.7c13.3,1.7,19.9,7.2,19.9,16.4c0,1.1-0.2,3.1-0.7,6
		c-0.5,2.9-1.3,5.7-2.5,8.5c-1.2,2.7-2.6,4.9-4.4,6.6c-1.8,1.7-3.5,3-5.2,4.1c-1.7,1-3.9,1.7-6.5,2.2c-4.1,0.7-9.6,1-16.5,1
		c-6.9,0-13.8-0.9-20.8-2.8l6.1-18.3c6.4,1.8,12.1,2.7,16.9,2.7c4.8,0,8.2-0.1,10.2-0.4l0.6-4l-7.8-0.9c-6.7-0.7-11.4-2.3-14.2-4.7
		c-2.8-2.4-4.2-5.8-4.2-10.3c0-1.6,0.2-3.7,0.6-6.2c1.6-8.8,4.6-14.9,8.9-18.3c4.3-3.4,10.8-5.1,19.6-5.1s16.6,0.9,23.5,2.6
		L-893.2,172.3z"/>
	<path id="XMLID_117_" class="st0" d="M-839.3,217.9l-52.4-5.6h53.4L-839.3,217.9z M-837.2,205.9l-52.4-5.6h53.4L-837.2,205.9z
		 M-835.1,194l-52.4-5.6h53.4L-835.1,194z M-833,182.2l-52.4-5.6h53.4L-833,182.2z M-830.9,170.3l-52.4-5.6h53.4L-830.9,170.3z
		 M-828.8,158.4l-52.4-5.6h53.3L-828.8,158.4z M-835.2,218.3l11.4-65.4h21.8l-11.5,65.4H-835.2z"/>
	<path id="XMLID_125_" class="st0" d="M-753.3,188.5c-0.3,2.6-0.5,4.3-0.6,5.2l-48.7-5.2H-753.3z M-754.1,200.3
		c0,1.3,0.2,3.1,0.5,5.2l-48.6-5.2H-754.1z M-751,176.6l-1.1,5.2l-48.3-5.2H-751z M-746.7,164.7c-1,2.1-1.7,3.8-2.1,4.9l-46.7-4.9
		H-746.7z M-751.5,212.3c1,2,2.1,3.5,3.2,4.6l-43.1-4.6H-751.5z M-735.9,152.9c-2,1.2-3.7,2.5-5.1,4.1l-38-4.1H-735.9z
		 M-700.4,214.8c-8.4,3.3-17,4.9-25.7,4.9c-8.7,0-15-1.7-18.7-5.1s-5.6-8.7-5.6-15.9c0-3.5,0.6-8.6,1.7-15.2
		c1.2-6.6,2.9-12.2,5.3-16.9c5.2-10,15.7-15,31.5-15c9.2,0,15.7,0.9,19.3,2.7l-6.3,17.2c-5.2-1.2-9.9-1.7-14-1.7
		c-4.2,0-7.1,0.3-8.8,0.9c-1.7,0.6-2.8,1.7-3.1,3.3l-5.2,28.4h5.7c2.1,0,3.6-0.2,4.8-0.7c1.1-0.5,1.8-1.5,2-3l0.9-4.8h-5.1l2.5-14.1
		h25L-700.4,214.8z"/>
	<path id="XMLID_133_" class="st0" d="M-643.3,217.9l-52.4-5.6h53.7L-643.3,217.9z M-640.6,205.9l-52.3-5.6h53.7L-640.6,205.9z
		 M-637.8,194l-52.3-5.6h53.5L-637.8,194z M-635.3,182.2l-51.9-5.6h53.3L-635.3,182.2z M-632.4,170.3l-51.9-5.6h53.2L-632.4,170.3z
		 M-629.7,158.4l-51.8-5.6h53.2L-629.7,158.4z M-593.4,218.3h-16.3l-1.9-26.6h-0.6l-5.9,26.6h-21.1l15-65.4h26.8l1.9,30.7h0.5
		l12.5-30.7h26.8l-7.9,65.4H-585l3.3-26.6h-0.6L-593.4,218.3z"/>
	<path id="XMLID_141_" class="st0" d="M-508.6,217.8l-50.7-5.4h53L-508.6,217.8z M-503.5,205.8l-50.7-5.4h53L-503.5,205.8z
		 M-498.4,193.9l-50.7-5.4h52.9L-498.4,193.9z M-493.5,182.1l-50.6-5.4h52.9L-493.5,182.1z M-488.4,170.2l-50.6-5.4h52.8
		L-488.4,170.2z M-483.5,158.2l-50.4-5.3h52.7L-483.5,158.2z M-463.3,218.3l-0.5-10h-15.6l-3.8,10h-21.4l27.4-65.4h30.7l4.8,65.4
		H-463.3z M-463.8,190.6v-18.8h-1.7l-7.3,18.8H-463.8z"/>
</g>
<g id="XMLID_188_">
	<linearGradient id="XMLID_206_" gradientUnits="userSpaceOnUse" x1="-692.5563" y1="115.9801" x2="-752.022" y2="-221.2669">
		<stop  offset="2.891278e-002" style="stop-color:#455FAC"/>
		<stop  offset="0.1412" style="stop-color:#4561AD"/>
		<stop  offset="1" style="stop-color:#4B9ED7"/>
	</linearGradient>
	<circle id="XMLID_33_" class="st1" cx="-722.3" cy="-52.6" r="171.2"/>
	<linearGradient id="XMLID_207_" gradientUnits="userSpaceOnUse" x1="-893.4854" y1="-111.1838" x2="-469.5449" y2="-111.1838">
		<stop  offset="4.761925e-002" style="stop-color:#4563AE"/>
		<stop  offset="0.233" style="stop-color:#4986C6"/>
		<stop  offset="0.7653" style="stop-color:#4B9ED7"/>
	</linearGradient>
	<path id="XMLID_153_" class="st2" d="M-469.5-223.8v3.1c-19.2,45.9-50.6,85.5-90.1,114.6c-45.5,33.7-101.7,53.5-162.6,53.5v0.7
		c-60.8,0-117,19.8-162.5,53.4c-5.7-17-8.7-35.2-8.7-54.1c0-18.7,3-36.7,8.6-53.5c22.5-68.3,86.8-117.7,162.6-117.7H-469.5z"/>
</g>
<g id="XMLID_162_">
	<path id="XMLID_197_" class="st0" d="M2.5,30h16.6l-0.5,1.7L2.5,30z M19.8,28L3.8,26.3h16.6L19.8,28z M21.1,20.3v0.3L4.8,18.9h16.4
		C21.1,19.5,21.1,20,21.1,20.3z M22.1,15.2c-0.2,0.4-0.3,1-0.5,1.7L5.5,15.2H22.1z M21.5,22.6c0.2,0.7,0.6,1.2,1.1,1.7L6.3,22.6
		H21.5z M24.7,11.5c-0.7,0.5-1.2,1.1-1.6,1.6l-15-1.6H24.7z M36.8,17.5c-1.7-0.4-3.2-0.6-4.5-0.6c-1.2,0-2.1,0-2.7,0.1l-0.2,1.1
		l1.9,0.2c4.1,0.5,6.2,2.2,6.2,5.1c0,0.3-0.1,1-0.2,1.9c-0.2,0.9-0.4,1.8-0.8,2.6c-0.4,0.8-0.8,1.5-1.4,2.1
		c-0.6,0.5-1.1,0.9-1.6,1.3c-0.5,0.3-1.2,0.5-2,0.7c-1.3,0.2-3,0.3-5.1,0.3c-2.1,0-4.3-0.3-6.5-0.9l1.9-5.7c2,0.6,3.8,0.8,5.3,0.8
		c1.5,0,2.6,0,3.2-0.1l0.2-1.2L28,25c-2.1-0.2-3.6-0.7-4.4-1.5c-0.9-0.7-1.3-1.8-1.3-3.2c0-0.5,0.1-1.2,0.2-1.9
		c0.5-2.7,1.4-4.6,2.8-5.7c1.3-1.1,3.4-1.6,6.1-1.6s5.2,0.3,7.3,0.8L36.8,17.5z"/>
	<path id="XMLID_189_" class="st0" d="M53.6,31.7L37.3,30h16.6L53.6,31.7z M54.3,28l-16.3-1.7h16.6L54.3,28z M54.9,24.3l-16.3-1.7
		h16.6L54.9,24.3z M55.6,20.6l-16.3-1.7h16.6L55.6,20.6z M56.2,16.9l-16.3-1.7h16.6L56.2,16.9z M56.9,13.2l-16.3-1.7h16.6L56.9,13.2
		z M54.9,31.8l3.5-20.4h6.8l-3.6,20.4H54.9z"/>
	<path id="XMLID_180_" class="st0" d="M80.4,22.6c-0.1,0.8-0.2,1.3-0.2,1.6L65,22.6H80.4z M80.2,26.3c0,0.4,0.1,1,0.2,1.6l-15.1-1.6
		H80.2z M81.1,18.9l-0.3,1.6l-15.1-1.6H81.1z M82.5,15.2c-0.3,0.7-0.5,1.2-0.7,1.5l-14.6-1.5H82.5z M81,30c0.3,0.6,0.6,1.1,1,1.4
		L68.5,30H81z M85.8,11.5c-0.6,0.4-1.1,0.8-1.6,1.3l-11.8-1.3H85.8z M96.9,30.8c-2.6,1-5.3,1.5-8,1.5c-2.7,0-4.7-0.5-5.8-1.6
		s-1.7-2.7-1.7-5c0-1.1,0.2-2.7,0.5-4.7c0.4-2.1,0.9-3.8,1.7-5.3c1.6-3.1,4.9-4.7,9.8-4.7c2.9,0,4.9,0.3,6,0.8l-2,5.4
		c-1.6-0.4-3.1-0.5-4.4-0.5c-1.3,0-2.2,0.1-2.8,0.3c-0.5,0.2-0.9,0.5-1,1l-1.6,8.9h1.8c0.6,0,1.1-0.1,1.5-0.2
		c0.3-0.1,0.6-0.5,0.6-0.9l0.3-1.5h-1.6l0.8-4.4h7.8L96.9,30.8z"/>
	<path id="XMLID_172_" class="st0" d="M114.7,31.7L98.3,30h16.7L114.7,31.7z M115.5,28l-16.3-1.7h16.7L115.5,28z M116.4,24.3
		l-16.3-1.7h16.7L116.4,24.3z M117.2,20.6L101,18.9h16.6L117.2,20.6z M118.1,16.9l-16.2-1.7h16.6L118.1,16.9z M118.9,13.2l-16.1-1.7
		h16.6L118.9,13.2z M130.2,31.8h-5.1l-0.6-8.3h-0.2l-1.8,8.3h-6.6l4.7-20.4h8.4l0.6,9.6h0.2l3.9-9.6h8.4l-2.5,20.4h-6.6l1-8.3h-0.2
		L130.2,31.8z"/>
	<path id="XMLID_163_" class="st0" d="M156.7,31.7L140.9,30h16.5L156.7,31.7z M158.2,28l-15.8-1.7H159L158.2,28z M159.8,24.3
		L144,22.6h16.5L159.8,24.3z M161.4,20.6l-15.8-1.7h16.5L161.4,20.6z M162.9,16.9l-15.8-1.7h16.4L162.9,16.9z M164.5,13.1l-15.7-1.7
		h16.4L164.5,13.1z M170.8,31.8l-0.2-3.1h-4.9l-1.2,3.1h-6.7l8.6-20.4h9.6l1.5,20.4H170.8z M170.6,23.2v-5.9h-0.5l-2.3,5.9H170.6z"
		/>
</g>
</svg>
